<svg width="96" height="96" viewBox="0 0 96 96" fill="none" xmlns="http://www.w3.org/2000/svg">
<path d="M24.7441 74.432C25.1361 74.028 25.6561 73.828 26.1721 73.828C26.6761 73.828 27.1801 74.016 27.5721 74.396L43.7441 90.188C44.4041 90.856 45.1761 91.34 46.0001 91.636L46.0001 2C46.0001 0.896 46.8961 0 48.0001 0C49.1041 0 50.0001 0.896 50.0001 2L50.0001 91.668C50.8201 91.384 51.5921 90.92 52.2521 90.268L68.6161 74.556C69.4121 73.796 70.6841 73.808 71.4441 74.616C72.2081 75.412 72.1881 76.68 71.3881 77.444L55.0441 93.136C53.1521 95 50.5521 96 48.0001 96C45.5041 95.936 42.8121 94.94 40.9201 93.024L24.7721 77.26C23.9841 76.488 23.9681 75.22 24.7401 74.432H24.7441Z" fill="black"/>
</svg>
